<svg width="20" height="20" viewBox="0 0 20 20" fill="none" xmlns="http://www.w3.org/2000/svg">
<path id="Shape" fill-rule="evenodd" clip-rule="evenodd" d="M10 0C4.4775 0 0 4.4775 0 10C0 15.5225 4.4775 20 10 20C15.5225 20 20 15.5225 20 10C20 4.4775 15.5225 0 10 0ZM13.7008 14.0767C11.9492 14.1967 8.0475 14.1967 6.29833 14.0767C4.40167 13.9467 4.18083 13.0183 4.16667 10C4.18083 6.97583 4.40417 6.05333 6.29833 5.92333C8.0475 5.80333 11.95 5.80333 13.7008 5.92333C15.5983 6.05333 15.8183 6.98167 15.8333 10C15.8183 13.0242 15.5958 13.9467 13.7008 14.0767ZM12.4308 9.99667L8.33333 8.04833V11.9517L12.4308 9.99667Z" fill="#C4032B"/>
</svg>
